<mxfile host="app.diagrams.net" modified="2023-09-11T06:17:32.955Z" agent="Mozilla/5.0 (Windows NT 10.0; Win64; x64) AppleWebKit/537.36 (KHTML, like Gecko) Chrome/116.0.0.0 Safari/537.36" etag="VeL2tNeWX2K3tKGRPnmu" version="21.7.4" type="github">
  <diagram name="Page-1" id="oxxaBQY4PGyz_gs20PyW">
    <mxGraphModel dx="1114" dy="610" grid="1" gridSize="10" guides="1" tooltips="1" connect="1" arrows="1" fold="1" page="1" pageScale="1" pageWidth="850" pageHeight="1100" math="0" shadow="0">
      <root>
        <mxCell id="0" />
        <mxCell id="1" parent="0" />
        <mxCell id="pGl5Kf-Ve_9VGkk85LbA-9" value="game tebak angka" style="rounded=0;whiteSpace=wrap;html=1;verticalAlign=top;" vertex="1" parent="1">
          <mxGeometry x="270" y="230" width="170" height="290" as="geometry" />
        </mxCell>
        <mxCell id="pGl5Kf-Ve_9VGkk85LbA-10" value="computer" style="shape=umlActor;verticalLabelPosition=bottom;verticalAlign=top;html=1;outlineConnect=0;" vertex="1" parent="1">
          <mxGeometry x="80" y="280" width="90" height="190" as="geometry" />
        </mxCell>
        <mxCell id="pGl5Kf-Ve_9VGkk85LbA-12" value="user" style="shape=umlActor;verticalLabelPosition=bottom;verticalAlign=top;html=1;outlineConnect=0;" vertex="1" parent="1">
          <mxGeometry x="590" y="280" width="90" height="190" as="geometry" />
        </mxCell>
        <mxCell id="pGl5Kf-Ve_9VGkk85LbA-13" value="random angka" style="ellipse;whiteSpace=wrap;html=1;" vertex="1" parent="1">
          <mxGeometry x="302.5" y="290" width="105" height="60" as="geometry" />
        </mxCell>
        <mxCell id="pGl5Kf-Ve_9VGkk85LbA-14" value="tebak angka" style="ellipse;whiteSpace=wrap;html=1;" vertex="1" parent="1">
          <mxGeometry x="302.5" y="390" width="105" height="60" as="geometry" />
        </mxCell>
        <mxCell id="pGl5Kf-Ve_9VGkk85LbA-15" value="" style="endArrow=none;html=1;rounded=0;" edge="1" parent="1" source="pGl5Kf-Ve_9VGkk85LbA-14" target="pGl5Kf-Ve_9VGkk85LbA-12">
          <mxGeometry width="50" height="50" relative="1" as="geometry">
            <mxPoint x="410" y="420" as="sourcePoint" />
            <mxPoint x="450" y="370" as="targetPoint" />
          </mxGeometry>
        </mxCell>
        <mxCell id="pGl5Kf-Ve_9VGkk85LbA-21" value="" style="endArrow=none;html=1;rounded=0;exitX=0.071;exitY=0.5;exitDx=0;exitDy=0;exitPerimeter=0;" edge="1" parent="1" source="pGl5Kf-Ve_9VGkk85LbA-13" target="pGl5Kf-Ve_9VGkk85LbA-10">
          <mxGeometry width="50" height="50" relative="1" as="geometry">
            <mxPoint x="400" y="420" as="sourcePoint" />
            <mxPoint x="450" y="370" as="targetPoint" />
          </mxGeometry>
        </mxCell>
      </root>
    </mxGraphModel>
  </diagram>
</mxfile>
